HIERARCHY
ROOT Hips
{
	OFFSET 0.00000 0.00000 0.00000
	CHANNELS 6 Xposition Yposition Zposition Zrotation Yrotation Xrotation 
	JOINT LHipJoint
	{
		OFFSET 0 0 0
		CHANNELS 3 Zrotation Yrotation Xrotation
		JOINT LeftHip
		{
			OFFSET 1.38280 -1.96574 0.54427
			CHANNELS 3 Zrotation Yrotation Xrotation
			JOINT LeftKnee
			{
				OFFSET 2.72096 -7.47578 0.00000
				CHANNELS 3 Zrotation Yrotation Xrotation
				JOINT LeftAnkle
				{
					OFFSET 2.73041 -7.50176 0.00000
					CHANNELS 3 Zrotation Yrotation Xrotation
					JOINT LeftToe
					{
						OFFSET 0.16150 -0.44371 2.18031
						CHANNELS 3 Zrotation Yrotation Xrotation
						End Site
						{
							OFFSET 0.00000 -0.00000 1.12127
						}
					}
				}
			}
		}
	}
	JOINT RHipJoint
	{
		OFFSET 0 0 0
		CHANNELS 3 Zrotation Yrotation Xrotation
		JOINT RightHip
		{
			OFFSET -1.57224 -1.96575 0.54427
			CHANNELS 3 Zrotation Yrotation Xrotation
			JOINT RightKnee
			{
				OFFSET -2.95935 -8.13076 0.00000
				CHANNELS 3 Zrotation Yrotation Xrotation
				JOINT RightAnkle
				{
					OFFSET -2.52345 -6.93311 0.00000
					CHANNELS 3 Zrotation Yrotation Xrotation
					JOINT RightToe
					{
						OFFSET -0.04475 -0.10171 1.86688
						CHANNELS 3 Zrotation Yrotation Xrotation
						End Site
						{
							OFFSET -0.00000 -0.00000 0.95157
						}
					}
				}
			}
		}
	}
	JOINT lowerback
	{
		OFFSET 0 0 0
		CHANNELS 3 Zrotation Yrotation Xrotation
		JOINT Chest
		{
			OFFSET 0.00669 2.07367 0.09104
			CHANNELS 3 Zrotation Yrotation Xrotation
			JOINT Chest2
			{
				OFFSET -0.00664 2.06198 -0.04732
				CHANNELS 3 Zrotation Yrotation Xrotation
				JOINT lowerneck
				{
					OFFSET 0 0 0
					CHANNELS 3 Zrotation Yrotation Xrotation
					JOINT Neck
					{
						OFFSET -0.00021 1.49948 0.16345
						CHANNELS 3 Zrotation Yrotation Xrotation
						JOINT Head
						{
							OFFSET 0.06080 1.50567 -0.26702
							CHANNELS 3 Zrotation Yrotation Xrotation
							End Site
							{
								OFFSET 0.01726 1.56470 -0.11854
							}
						}
					}
				}
				JOINT LeftCollar
				{
					OFFSET 0 0 0
					CHANNELS 3 Zrotation Yrotation Xrotation
					JOINT LeftShoulder
					{
						OFFSET 3.14993 0.82932 -0.22488
CHANNELS 3 Zrotation Xrotation Yrotation
						JOINT LeftElbow
						{
OFFSET 0 -5.682360 -0.000000
CHANNELS 3 Zrotation Xrotation Yrotation
							JOINT LeftWrist
							{
OFFSET 0 -3.171120 0.000000
CHANNELS 3 Zrotation Xrotation Yrotation
								JOINT lhand
								{
									OFFSET 0 0 0
CHANNELS 3 Zrotation Xrotation Yrotation
									JOINT LFingers
									{
OFFSET 0 -0.632690 0.000000
CHANNELS 3 Zrotation Xrotation Yrotation
										End Site
										{
OFFSET 0 -0.510090 0.000000
										}
									}
								}
								JOINT LThumb
								{
OFFSET 0 0.000000 0.000000
CHANNELS 3 Zrotation Xrotation Yrotation
									End Site
									{
OFFSET 0 -0.517880 0.517880
									}
								}
							}
						}
					}
				}
				JOINT RightCollar
				{
					OFFSET 0 0 0
					CHANNELS 3 Zrotation Yrotation Xrotation
					JOINT RightShoulder
					{
						OFFSET -3.10571 0.91279 -0.33334
CHANNELS 3 Zrotation Xrotation Yrotation
						JOINT RightElbow
						{
OFFSET 0 -5.871200 -0.000000
CHANNELS 3 Zrotation Xrotation Yrotation
							JOINT RightWrist
							{
OFFSET 0 -3.375890 0.000000
CHANNELS 3 Zrotation Xrotation Yrotation
								JOINT rhand
								{
									OFFSET 0 0 0
CHANNELS 3 Zrotation Xrotation Yrotation
									JOINT RFingers
									{
OFFSET 0 -0.603260 0.000000
CHANNELS 3 Zrotation Xrotation Yrotation
										End Site
										{
OFFSET 0 -0.486360 0.000000
										}
									}
								}
								JOINT RThumb
								{
OFFSET 0 0.000000 0.000000
CHANNELS 3 Zrotation Xrotation Yrotation
									End Site
									{
OFFSET 0 -0.493790 0.493790
									}
								}
							}
						}
					}
				}
			}
		}
	}
}
MOTION
Frames: 6
Frame Time: 0.008333333333333333
12.512000 17.967800 -3.025000 127.826000 -86.428200 -115.696000 0.000000 0.000000 0.000000 -16.534100 -14.766600 -26.821500 4.734700 13.078600 39.663400 1.629900 -3.314400 -23.300800 0.972500 -6.278100 -17.593400 0.000000 0.000000 0.000000 17.447400 15.066700 -23.033800 -4.824200 -13.183100 40.057700 0.775000 17.557500 -2.613600 -2.068300 -9.006900 25.816900 -2.960700 -0.211900 -7.196100 1.477700 -0.090700 2.081100 3.202200 -0.191100 6.228600 -2.676800 -0.506900 -16.787000 0.316500 -0.182600 19.232200 0.520700 -0.296100 8.790800 0.000000 0.000000 0.000000 6.437800 1.876700 -28.392700 16.843300 -26.650700 4.016800 17.969700 -4.038500 -30.705800 0.000000 0.000000 0.000000 -7.125000 0.000000 0.000000 -15.984100 61.250300 6.418200 0.000000 0.000000 0.000000 0.003500 -0.196600 3.173200 -21.051400 -31.888300 -6.077100 -25.960600 1.581200 -34.366000 0.000000 0.000000 0.000000 7.125000 0.000000 -0.000000 3.702300 -7.207100 4.145600
12.308320 17.899735 -3.352842 117.145624 -86.431130 -104.829139 0.000000 0.000000 0.000000 -16.216973 -14.854328 -31.622931 6.774036 15.138605 48.014398 1.760749 -1.317243 -24.723027 1.218423 -7.001692 -19.720339 0.000000 0.000000 0.000000 18.347869 13.589937 -23.112527 -4.978891 -13.359937 40.731233 1.000537 19.502839 -2.257423 -1.664390 -8.128815 23.106091 -1.974688 -0.211946 -7.111778 1.625712 -0.197444 1.968016 2.785623 -0.206066 6.063011 -2.656469 -0.628921 -17.356947 -0.155677 -0.228366 19.435233 0.350246 -0.369065 8.965150 0.000000 0.000000 0.000000 3.194754 3.374747 -27.170247 17.076167 -26.958068 4.121813 21.810680 -0.023816 -31.731657 0.000000 0.000000 0.000000 -7.125000 0.000000 0.000000 -12.403146 63.229904 5.530873 0.000000 0.000000 0.000000 1.762932 -0.105120 4.054907 -17.010980 -26.872259 -4.092311 -30.751168 0.373747 -34.286285 0.000000 0.000000 0.000000 7.125000 0.000000 0.000000 1.087392 -8.440920 1.235334
11.887552 17.884753 -3.597185 143.746553 -85.021476 -131.077963 0.000000 0.000000 0.000000 -16.619538 -15.045069 -39.190888 7.903379 16.047667 52.213751 1.243404 -1.867816 -20.546930 1.350269 -7.356268 -20.775098 0.000000 0.000000 0.000000 19.520401 13.795068 -21.554613 -4.773417 -13.124016 39.834383 1.099999 19.698428 -0.785538 -1.962348 -8.787162 25.131910 -1.467935 0.625779 -7.134447 1.350485 0.891238 1.932069 2.343275 0.356976 5.978117 -1.625930 -0.558887 -17.918480 -0.049634 -0.396272 18.625624 0.195965 -0.341869 8.786279 0.000000 0.000000 0.000000 0.792861 4.161456 -28.533016 17.746618 -27.831447 4.430251 22.650852 -0.700755 -31.764250 0.000000 0.000000 0.000000 -7.125000 0.000000 0.000000 -11.444091 63.485468 5.165648 0.000000 0.000000 0.000000 -2.173285 -0.130096 9.661977 -15.451641 -24.771571 -3.412977 -30.135473 2.308100 -35.423732 0.000000 0.000000 0.000000 7.125000 0.000000 0.000000 1.672419 -9.440890 1.924860
11.262521 17.890989 -3.817564 159.020881 -83.176089 -146.238830 0.000000 0.000000 0.000000 -17.100788 -17.999993 -43.431374 5.990005 14.418537 44.941451 1.125797 -0.610364 -19.868372 1.111069 -6.696691 -18.820061 0.000000 0.000000 0.000000 20.997900 13.474200 -18.210148 -4.237828 -12.470269 37.416699 1.194719 20.002679 0.500177 -2.038339 -8.945443 25.624875 -1.183588 0.584075 -6.860490 1.145721 0.818762 2.021491 1.956865 0.335875 5.925577 -0.803610 0.050888 -18.298449 -0.272361 0.283891 18.085589 0.071672 0.020009 8.664869 0.000000 0.000000 0.000000 0.086326 3.837548 -30.133152 16.807021 -26.602662 4.000555 19.380647 -2.149120 -31.792507 0.000000 0.000000 0.000000 -7.125000 0.000000 0.000000 -15.237840 62.654317 6.616349 0.000000 0.000000 0.000000 -6.642264 -0.986568 14.892780 -17.342215 -27.306585 -4.243200 -26.247197 2.979259 -33.818766 0.000000 0.000000 0.000000 7.125000 0.000000 0.000000 3.441950 -6.718008 3.827566
10.418312 17.855755 -4.080520 171.354459 -80.523700 -158.514740 0.000000 0.000000 0.000000 -18.673558 -16.879615 -46.380774 3.918958 12.051734 35.915287 0.575196 -2.391990 -13.707111 1.340363 -7.330230 -20.697411 0.000000 0.000000 0.000000 22.826253 11.453991 -14.071930 -3.560952 -11.551987 34.165052 1.436817 21.080103 3.366664 -1.900205 -8.655125 24.722181 -1.572312 0.587602 -7.060985 1.107102 0.864335 2.082574 2.145130 0.342265 6.098240 -0.033064 0.909737 -18.288987 -0.527076 1.297658 18.558380 -0.012789 0.515484 8.828810 0.000000 0.000000 0.000000 0.568308 3.026291 -30.230970 17.025687 -26.891568 4.098912 18.715210 -2.409345 -31.702766 0.000000 0.000000 0.000000 -7.125000 0.000000 0.000000 -15.916990 62.396854 6.822410 0.000000 0.000000 0.000000 -9.297363 -1.651796 15.532522 -19.895537 -30.516333 -5.478281 -25.396560 -0.016601 -32.265471 0.000000 0.000000 0.000000 7.125000 0.000000 0.000000 3.631389 -4.906020 3.936239
9.307960 17.713024 -4.345366 178.659404 -76.504222 -166.074299 0.000000 0.000000 0.000000 -17.574589 -17.211456 -45.263666 3.286021 11.144198 32.767944 0.774861 1.616463 -17.288644 0.952112 -6.213832 -17.405999 0.000000 0.000000 0.000000 23.972142 8.925365 -9.296989 -3.185393 -10.989216 32.243689 1.696153 22.352866 7.029082 -1.575784 -7.920137 22.471765 -2.032812 0.675234 -7.667311 0.763777 1.059746 2.138704 2.081883 0.422606 6.494059 0.869710 2.012945 -18.148054 -1.323297 2.732404 19.093044 -0.248467 1.154140 9.016834 0.000000 0.000000 0.000000 1.907941 2.334660 -28.370280 17.323483 -27.282218 4.234531 19.085129 -2.330892 -31.577147 0.000000 0.000000 0.000000 -7.125000 0.000000 0.000000 -15.403122 62.370298 6.586833 0.000000 0.000000 0.000000 -10.614180 -0.717040 16.732492 -21.351368 -32.236187 -6.236317 -25.538390 -1.015765 -32.439470 0.000000 0.000000 0.000000 7.125000 0.000000 0.000000 3.582554 -5.120021 3.895282
